<svg width="100" height="100" xmlns="http://www.w3.org/2000/svg">

 <g>
  <title>background</title>
  <rect fill="none" id="canvas_background" height="402" width="582" y="-1" x="-1"/>
 </g>
 <g>
  <title>Layer 1</title>
  <g id="surface1">
   <path id="svg_1" fill-rule="nonzero" fill="#FFF5FF" d="m50.089844,1.5625c12.941406,0.023438 24.695312,5.125 33.371094,13.414062l6.972656,-6.976562c2.953125,-2.949219 8.003906,-0.859375 8.003906,3.316406l0,26.183594c0,2.589844 -2.097656,4.6875 -4.6875,4.6875l-26.183594,0c-4.175781,0 -6.265625,-5.050781 -3.316406,-8.003906l8.15625,-8.152344c-6.027344,-5.644531 -13.828125,-8.769531 -22.117188,-8.84375c-18.042968,-0.15625 -33.257812,14.449219 -33.101562,33.09375c0.148438,17.6875 14.488281,32.53125 32.8125,32.53125c8.03125,0 15.625,-2.867188 21.605469,-8.117188c0.929687,-0.8125 2.328125,-0.761718 3.199219,0.109376l7.746093,7.746093c0.953125,0.953125 0.902344,2.503907 -0.09375,3.40625c-8.589843,7.757813 -19.972656,12.480469 -32.457031,12.480469c-26.75,0 -48.4375,-21.6875 -48.4375,-48.4375c0,-26.71875 21.804688,-48.484375 48.527344,-48.4375zm0,0"/>
  </g>
 </g>
</svg>